<?xml version="1.0" encoding="UTF-8"?>
<svg version="1.1" viewBox="0 0 48 48" xmlns="http://www.w3.org/2000/svg">
 <path d="m30.475 2.4414c-0.34654-0.015934-0.87719-0.00584-1.5371 0.023437-1.3198 0.058548-3.1527 0.19316-4.9824 0.35938-1.8297 0.16621-3.6561 0.36273-4.9648 0.54297-0.65439 0.090117-1.1776 0.17579-1.5156 0.25391-0.169 0.039058-0.28424 0.070652-0.37891 0.12305-0.02367 0.013099-0.0483 0.027476-0.07422 0.054687-0.02591 0.027212-0.05915 0.077263-0.05664 0.14453 0.0025 0.067268 0.04377 0.11914 0.07422 0.14453 0.03045 0.02539 0.05563 0.036662 0.08203 0.046875l4.6348 1.793 3.0254 33.305c0.3352-0.03524 0.0018 0.01093 2e-3 0.01172 1.38e-4 8.73e-4 0.0086 0.0292 0.01563 0.04687h-2e-3l0.0039 0.0078 2.877 6.2676 0.1543-0.07031 0.16406 0.04102 1.7031-6.6914h-2e-3c0.0044-0.01919 6e-3 -0.05719 0.0059-0.06055-7.2e-5 -7.91e-4 8e-5 -0.0012 0-2e-3l-3.0254-33.303 4.2363-2.5977c0.02413-0.014803 0.04884-0.032038 0.07422-0.0625s0.05457-0.087678 0.04492-0.1543c-0.0097-0.066619-0.05164-0.11072-0.08203-0.13281s-0.05639-0.032396-0.08203-0.041016c-0.10256-0.034479-0.22126-0.042814-0.39453-0.050781zm-0.04102 0.33789-12.857 1.168c0.31711-0.072136 0.82225-0.15619 1.4609-0.24414 1.2995-0.17896 3.1232-0.37514 4.9492-0.54102 1.826-0.16587 3.6543-0.30124 4.9648-0.35938 0.64422-0.028578 1.1575-0.037265 1.4824-0.023437zm-0.91015 36.023c-29.523-38.803-29.523-38.803 0 0zm-4.3477 0.5c0.0028-6.85e-4 3e-3 -0.0013 0.0059-2e-3z" color="#000000" fill="#ffaf00" style="-inkscape-stroke:none"/>
 <path d="m27.832 45.496-2.8803-6.2753m2.8803 6.2753 1.7027-6.6917m-3.0356-33.422 3.036 33.419m-7.62-33.003 3.0356 33.419m-3.035-33.41-4.7329-1.8309m9.3173 1.4145 4.3256-2.6537m-1.291 36.067a0.14464 2.3016 84.81 0 0 2.77e-4 -0.0034m0 1.36e-4a0.14464 2.3016 84.81 0 0-4.5842 0.41643 0.14464 2.3016 84.81 0 0 1e-3 3e-3m1.5475-33.838a0.14464 2.3016 84.81 0 0-4.5842 0.41643m8.9109-3.061a0.43392 6.9047 84.81 1 0-13.643 1.2393" fill="none" stroke="#000000" stroke-opacity=".99595" stroke-width="1.26"/>
</svg>
