<svg version="1.1" viewBox="0 0 48 48" xmlns="http://www.w3.org/2000/svg">
 <title>ISO2341-A</title>
 <desc>2340.dxf - scale = 1.000000, origin = (0.000000, 0.000000), method = manual</desc>
 <path d="m15.989 1.7082c-1.6237 0.21522-3.7138-0.14521-4.9159 1.1887-0.71548 0.90891-1.5002 1.77-2.1748 2.7071-0.12952 1.1212-0.22033 2.2758-0.20969 3.403 1.0804 1.4473 3.2215 1.3893 4.853 1.8171 1.3292-0.30625 0.84046 0.91516 0.84268 1.7252-0.55364 8.6919-1.1076 17.384-1.661 26.076 0.74388 2.0724 1.7244 4.0795 2.5577 6.1273 0.94006 1.3299 2.9876 1.0014 4.4459 1.3244 2.5813 0.17824 5.2324 0.5107 7.7852-0.03112 0.77376-0.5101 1.0161-1.5409 1.5605-2.2743 0.73241-1.33 1.6229-2.5983 2.2606-3.965 0.58813-9.2316 1.1762-18.463 1.7644-27.695 1.9006-0.02307 3.9462 0.03542 5.6889-0.81039 0.65509-0.68793 0.32928-1.7767 0.49786-2.655 0.45357-0.74264-0.58231-1.1671 0.05389-1.0034-0.55586-1.1702-1.3579-2.2221-2.009-3.3458-1.4715-1.2824-3.6202-1.2749-5.461-1.6617-5.2547-0.71877-10.576-1.0611-15.879-0.92704z" color="#000000" fill="#ffaf00" stroke-width=".78758" style="-inkscape-stroke:none"/>
 <path transform="matrix(.78758 0 0 .78758 -537.19 -533.14)" d="m700.96 690.81c-0.12948 1.8363 22.527 3.2782 22.631 1.4402m-21.566 41.535-3.288-7.699m18.346 8.659 4.241-7.219m2.267-35.278-2.241 35.195m-20.39-36.635-2.242 35.195m24.922-34.163c-0.0252 0.12851-0.0416 0.26457-0.0491 0.40819m-22.632-1.44c0.0101-0.14362 0.0114-0.28094 4e-3 -0.41197m30.553-3.6587-0.238 3.746m-37.482-6.146-0.238 3.746m3.217-7.484-2.896 3.545m35.158-1.493 2.419 3.886m-29.432 47.248c0.50667 1.1856 14.406 2.0702 15.059 0.95836m4.2392-7.2196c0.0159-0.0272 0.0248-0.0549 0.0266-0.083m-22.615-1.3545c0.76009 1.7785 21.61 3.1053 22.589 1.4375m-22.605-1.5233c-2e-3 0.0281 4e-3 0.0567 0.0159 0.0857m-5.1748-38.002c-0.19471 3.0594 37.524 5.4598 37.719 2.4004m0.23811-3.7455c1e-3 -0.0165 8e-4 -0.0331-1e-3 -0.0498m-37.718-2.3506c-0.20774 3.0601 37.537 5.4622 37.719 2.4004m-37.635-2.5948c-0.0515 0.0631-0.0794 0.12797-0.0836 0.19436m37.718 2.3507c-6e-3 -0.0504-0.0247-0.10168-0.0571-0.15364m-34.684-5.9397c-2.1512 2.6368 32.627 4.9887 32.312 2.1851m-0.049-0.13191c-1.5628-2.5082-30.395-4.343-32.263-2.0532m32.312 2.1851c-5e-3 -0.0433-0.0212-0.0873-0.049-0.13191" fill="none" stroke="#000000" stroke-width="1.5998"/>
</svg>
