<svg version="1.1" viewBox="0 0 48 48" xmlns="http://www.w3.org/2000/svg">
 <title>ISO2339</title>
 <path d="m22.092 1.8253c-1.1007 0.00462-2.488 0.038948-3.842 0.14851h-0.0026l-0.0025 5.19e-4c-1.6852 0.15202-3.4765 0.36037-5.0721 1.0634l-0.0025 0.00104-0.0021 0.00104c-0.39447 0.17792-0.76077 0.3992-1.0869 0.67513l-0.0011 0.00104-0.0011 5.191e-4c-0.5074 0.43261-0.87085 1.055-0.887 1.7659h-0.0021l-5.19e-4 0.00708h-0.0026c-8.2e-5 0.0026 0.0021 0.00298 0.0021 0.00558-8e-6 5.191e-4 5.19e-4 5.191e-4 5.19e-4 0.00104l-4.83e-4 0.011157-1.3751 36.162h0.00104c-0.022863 0.58106 0.19323 1.1275 0.5469 1.5545 0.15734 0.19464 0.33491 0.36124 0.52004 0.50635l5.2e-4 5.18e-4c0.71274 0.55544 1.5571 0.88787 2.3838 1.147l3e-3 0.0011 0.0035 0.0011c0.7507 0.22521 1.5214 0.41125 2.3077 0.54487 5.2e-4 9.6e-5 0.0011 5.19e-4 0.0016 5.19e-4 1.4485 0.26408 2.9487 0.41584 4.2642 0.52004l0.0016 5.2e-4h0.0016c0.65041 0.04773 1.2185 0.08242 1.6954 0.10847 0.46527 0.02612 0.86137 0.04329 1.1911 0.05626h0.0027c0.49292 0.01728 0.90543 0.03033 1.3994 0.04157 0.40667 0.0091 0.87703 0.01783 1.5018 0.02128 2.7604 0.01334 5.2507-0.22561 8.0424-0.66398l3e-3 -0.0011 3e-3 -5.18e-4c0.83734-0.20933 1.7032-0.48458 2.4486-0.998h0.0011l5.19e-4 -5.19e-4c0.19943-0.13806 0.38195-0.29459 0.54741-0.47037 0.37696-0.39919 0.61511-0.92517 0.6356-1.4952 7.79e-4 -0.0087 0.0082-0.0097 0.0086-0.01876h-0.0046c1.01e-4 -0.0037 0.0021-7e-3 0.0021-0.01064 8e-6 -2.59e-4 5.19e-4 -5.18e-4 5.19e-4 -0.0011l0.85859-36.198h-5.19e-4c0.01142-0.45204-0.10823-0.89825-0.34922-1.2849l-3e-3 -0.00457-0.0025-0.00405c-0.19401-0.29869-0.43936-0.56468-0.73254-0.7912-0.72859-0.56613-1.5943-0.89656-2.4324-1.1551l-0.0021-5.191e-4 -0.0026-0.00104c-0.69769-0.20884-1.4119-0.37717-2.1344-0.50584-0.0011-1.895e-4 -0.0021-2.595e-4 -3e-3 -5.191e-4 -1.4169-0.25946-2.8778-0.41194-4.1689-0.51193l0.0016 5.19e-4c-0.64821-0.052136-1.2049-0.087463-1.6737-0.11354h-0.0046c-0.44944-0.021618-0.83419-0.038626-1.1506-0.0517l-0.0016-5.191e-4h-0.0021c-0.4925-0.017257-0.90441-0.030147-1.3933-0.043081h-0.0046c-0.50349-0.00911-1.1262-0.021799-2.0325-0.021799h-0.0011z" color="#000000" fill="#ffaf00"/>
 <path d="m10.385 41.691c-0.01723 0.42684 0.14228 0.84074 0.41822 1.1727 0.12503 0.15522 0.27162 0.29318 0.43114 0.41822 0.62516 0.48719 1.4056 0.80193 2.2032 1.052 0.73295 0.21989 1.4832 0.40097 2.2463 0.53032 1.4185 0.25869 2.9016 0.40959 4.208 0.51306 0.64672 0.04745 1.2115 0.08191 1.6858 0.1078 0.46133 0.0259 0.85367 0.04312 1.1813 0.05601 0.49152 0.01723 0.9011 0.02978 1.3926 0.04095 0.40528 0.0091 0.87091 0.01814 1.4918 0.02157 0.60792 0.0034 1.3926-7.79e-4 2.2204-0.02499m8.8946-3.0771c-0.0091 0.43115-0.18971 0.83212-0.48719 1.1469-0.13797 0.14659-0.28887 0.27594-0.45702 0.39234-0.65104 0.4484-1.453 0.7114-2.2635 0.91403-1.8496 0.43978-3.8415 0.56481-5.6868 0.62387m-16.103-40.074-1.3757 36.187m27.232-35.389-0.85898 36.199m0.85851-36.199c0.009136-0.34923-0.07757-0.67259-0.263-0.97008-0.15952-0.24576-0.35785-0.46133-0.6036-0.65104-0.63811-0.49583-1.44-0.81056-2.2506-1.0606-0.6769-0.20263-1.3711-0.36646-2.0738-0.4915-1.3883-0.25438-2.8326-0.40528-4.1132-0.50445-0.64241-0.051674-1.1943-0.086238-1.6599-0.11214-0.44839-0.021565-0.83212-0.038784-1.1468-0.051788-0.49151-0.017231-0.9011-0.03023-1.3883-0.04312-0.50445-0.00913-1.121-0.021566-2.0221-0.021566-1.0908 0.00457-2.4662 0.038784-3.7984 0.14659-1.6729 0.15091-3.4061 0.36216-4.8935 1.0175-0.35354 0.15952-0.67258 0.35354-0.95283 0.59068-0.4096 0.34923-0.68122 0.8278-0.68984 1.3538m-1.3734 36.186a13.193 0.28607 1.7637 0 0 25.588 0.88506m-25.588-0.8851a13.193 0.28607 1.7637 0 0-1e-5 3.7e-5m26.374 0.81211a13.193 0.28607 1.7637 0 0 0-4.7e-5m-0.78603 0.07301a13.193 0.28607 1.7637 0 0 0.78603-0.0729m-25.003-36.995a12.934 0.28046 1.7637 0 0 25.086 0.86771m-25.086-0.86776a12.934 0.28046 1.7637 0 0 0 4.67e-5m25.857 0.79618a12.934 0.28046 1.7637 0 0 0-4.42e-5m-0.77062 0.071524a12.934 0.28046 1.7637 0 0 0.77062-0.071524" fill="none" stroke="#000000" stroke-width="1.2358"/>
</svg>
