<svg version="1.1" viewBox="0 0 48 48" xmlns="http://www.w3.org/2000/svg">
 <title>ISO2338</title>
 <g transform="translate(-537.14 -699.31)">
  <path d="m559.62 701.63c-4.0206-0.0404-8.1237 1.6721-9.6504 5.2793l-1.082 2.5586h-2e-3c-5e-4 1e-3 5.1e-4 3e-3 0 4e-3 -0.34697 0.82108-0.53032 1.684-0.53906 2.5527h-2e-3l-0.22852 22.545h2e-3c-9e-3 0.86945 0.15715 1.736 0.48828 2.5644l1.0312 2.582c1.4538 3.6371 5.5224 5.4303 9.543 5.4707 4.0206 0.0404 8.1237-1.6722 9.6504-5.2793v-5e-5h2e-3l1.082-2.5586 2e-3 -2e-3c0.12009-0.284 0.22026-0.5741 0.30079-0.86719 0.1521-0.55358 0.23256-1.1199 0.23828-1.6875l0.22851-22.543c9e-3 -0.87009-0.15691-1.7374-0.48828-2.5664h-2e-3l-1.0312-2.5801c-2.1e-4 -5.2e-4 2.1e-4 -1e-3 0-2e-3h-2e-3c-1.4547-3.6354-5.5214-5.4303-9.541-5.4707z" color="#000000" fill="#ffaf00" style="-inkscape-stroke:none"/>
  <path d="m550.08 739.55-1.0303-2.5824m19.353 2.7644 1.0841-2.5606m0.73027-24.919-0.22833 22.544m-21.167-22.758-0.22833 22.544m1.8153-27.479-1.0841 2.5606m19.406-2.3786 1.0312 2.5814m-19.681 29.682a9.5904 7.2172 0.57638 0 0 18.322 0.1843m1.084-2.56a10.698 8.0507 0.57638 0 0 0.28174-0.80971m-20.719 0.60412a10.698 8.0507 0.57638 0 0 20.438 0.20559m-20.892-2.5914a10.698 8.0507 0.57638 0 0 0.45464 2.3858m20.719-0.60412a10.698 8.0507 0.57638 0 0 0.2208-1.5664m-21.167-22.759a10.698 8.0507 0.57638 0 0 21.174 1.7817m-20.671-4.1578a10.698 8.0507 0.57638 0 0-0.50253 2.3761m21.395 0.21526a10.698 8.0507 0.57638 0 0-0.45464-2.3858m0.23384 3.9523a10.698 8.0507 0.57638 0 0 0.2208-1.5664m-19.808-5.1514a9.5904 7.2172 0.57638 1 0 18.531 3.7274m-0.20964-3.5431a9.5904 7.2172 0.57638 0 0-18.322-0.18429m18.531 3.7274a9.5904 7.2172 0.57638 0 0-0.20964-3.5431" fill="none" stroke="#000000" stroke-width="1.26"/>
 </g>
</svg>
