<svg version="1.1" viewBox="0 0 48 48" xmlns="http://www.w3.org/2000/svg">
 <title>ISO2341-B</title>
 <desc>2340.dxf - scale = 1.000000, origin = (0.000000, 0.000000), method = manual</desc>
 <path d="m15.989 1.7082c-1.6237 0.21522-3.7138-0.14521-4.9159 1.1887-0.71548 0.90891-1.5002 1.77-2.1748 2.7071-0.12952 1.1212-0.22033 2.2758-0.20969 3.403 1.0804 1.4473 3.2215 1.3893 4.853 1.8171 1.3292-0.30625 0.84046 0.91516 0.84268 1.7252-0.55364 8.6919-1.1076 17.384-1.661 26.076 0.74388 2.0724 1.7244 4.0795 2.5577 6.1273 0.94006 1.3299 2.9876 1.0014 4.4459 1.3244 2.5813 0.17824 5.2324 0.5107 7.7852-0.03112 0.77376-0.5101 1.0161-1.5409 1.5605-2.2743 0.73241-1.33 1.6229-2.5983 2.2606-3.965 0.58813-9.2316 1.1762-18.463 1.7644-27.695 1.9006-0.02307 3.9462 0.03542 5.6889-0.81039 0.65509-0.68793 0.32928-1.7767 0.49786-2.655 0.45357-0.74264-0.58231-1.1671 0.05389-1.0034-0.55586-1.1702-1.3579-2.2221-2.009-3.3458-1.4715-1.2824-3.6202-1.2749-5.461-1.6617-5.2547-0.71877-10.576-1.0611-15.879-0.92704zm6.516 33.099c2.7207 0.08075 0.07421 2.6452-1.2838 1.5108-1.6246-0.58302 0.61054-1.6523 1.2838-1.5108z" color="#000000" fill="#ffaf00" stroke-width=".78758" style="-inkscape-stroke:none"/>
 <path transform="matrix(.78758 0 0 .78758 -537.19 -533.14)" d="m700.96 690.81a11.339 1.3795 3.6414 1 0 22.631 1.4402m-21.566 41.535-3.288-7.699m18.346 8.659 4.241-7.219m2.267-35.278-2.241 35.195m-20.39-36.635-2.242 35.195m24.922-34.163q-0.0378 0.19276-0.0491 0.40819m-22.632-1.44q0.0151-0.21543 4e-3 -0.41197m30.553-3.6587-0.238 3.746m-37.482-6.146-0.238 3.746m3.217-7.484-2.896 3.545m35.158-1.493 2.419 3.886m-29.432 47.248a7.559 0.91966 3.6414 0 0 15.059 0.95836m-3.6066-11.507c-0.0756-0.68031-0.3893-1.3342-0.93355-1.8255-0.47622-0.4422-1.1603-0.74456-1.8746-0.78614m2.8195 3.1294q0.0189-0.26079-0.0113-0.5178m-6.0095 0.67276c0.0378 0.32882 0.12472 0.6463 0.26834 0.95622 0.40819 0.91087 1.4136 1.697 2.5512 1.7499m0.38174-5.9906c-0.25701-0.0151-0.50646 0-0.75591 0.0454-0.93354 0.17008-1.6894 0.74834-2.0901 1.4664-0.30236 0.5367-0.42331 1.1603-0.35527 1.7726m2.8195 2.7061c0.25323 0.0151 0.50268 0 0.75591-0.0491 1.4513-0.29103 2.3811-1.5723 2.4454-2.812m-3.515 0.0793c0.75969 0.0491 1.5345-0.19276 2.1203-0.6652 0.41952-0.34015 0.72189-0.75212 0.90708-1.2321m-5.3594 0.58582c0.47244 0.71433 1.3493 1.2548 2.332 1.3115m11.35 3.6907a11.339 1.3795 3.6414 0 0 0.0266-0.083m-22.615-1.3545a11.339 1.3795 3.6414 0 0 22.589 1.4375m-22.605-1.5233a11.339 1.3795 3.6414 0 0 0.0159 0.0857m-5.1748-38.002a18.898 2.2992 3.6413 1 0 37.719 2.4004m0.23811-3.7455a18.898 2.2992 3.6413 0 0-1e-3 -0.0498m-37.718-2.3506a18.898 2.2992 3.6413 1 0 37.719 2.4004m-37.635-2.5948a18.898 2.2992 3.6413 0 0-0.0836 0.19436m37.718 2.3507a18.898 2.2992 3.6413 0 0-0.0571-0.15364m-34.684-5.9397a16.225 1.974 3.6413 1 0 32.312 2.1851m-0.049-0.13191a16.225 1.974 3.6413 0 0-32.263-2.0532m32.312 2.1851a16.225 1.974 3.6413 0 0-0.049-0.13191" fill="none" stroke="#000000" stroke-width="1.5998"/>
</svg>
