<svg version="1.1" viewBox="0 0 48 48" xmlns="http://www.w3.org/2000/svg">
 <title>ISO2340</title>
 <desc>2340.dxf - scale = 1.000000, origin = (0.000000, 0.000000), method = manual</desc>
 <path d="m20.738 2.015c-0.65536 0.025666-1.2182 0.074156-1.6614 0.15397-0.2216 0.039874-0.41231 0.086438-0.58364 0.15396-0.17061 0.067281-0.34397 0.1431-0.47443 0.36344h-0.0036l-3.8832 6.6169 0.54246 0.31867h-0.0037l-0.53888-0.31688c-0.04556 0.077639-0.08094 0.17552-0.08772 0.2775-3.6e-5 5.958e-4 3.7e-5 9.166e-4 0 0.00183l-1.7492 27.452v0.0018c-0.0064 0.10199 0.01476 0.20196 0.05014 0.28466h0.0018c5.87e-4 9.17e-4 9.17e-4 0.0018 0.0018 0.0037l3.0131 7.0556c0.1014 0.23727 0.26471 0.33202 0.42609 0.42072 0.16139 0.08873 0.34562 0.15968 0.56036 0.22737 0.42951 0.13539 0.98056 0.25492 1.6274 0.36344 1.2937 0.21703 2.9586 0.38777 4.6297 0.49412 1.6711 0.10635 3.3441 0.14797 4.6548 0.09668 0.65537-0.02567 1.2182-0.07416 1.6614-0.15397 0.2216-0.03987 0.4141-0.08644 0.58543-0.15397 0.17133-0.06756 0.34378-0.14093 0.47443-0.36344-15.392-7.3261-14.04-6.1858 0.0037-4.6e-5l3.8832-6.6187c2.2e-4 -3.58e-4 -2.11e-4 -0.0018 0-0.0018 0.04519-0.077 0.077-0.17458 0.08415-0.2757h0.0018c9.2e-5 -9.16e-4 -7.3e-5 -0.0027 0-0.0037l1.7509-27.451v-0.0018c0.0018-0.03557 3.21e-4 -0.07086-0.0037-0.10562-1.1922 0.13369 0 0.02484 0-0.0018-0.0073-0.06508-0.02521-0.12508-0.04831-0.17903h-0.0018l-3.0113-7.0502-0.0018-0.00733c-4.3e-4 -9.166e-4 -9.16e-4 -7.883e-4 -0.0018-0.00183-0.10148-0.23515-0.2636-0.33068-0.4243-0.419-0.16138-0.08873-0.34561-0.15968-0.56036-0.22737-0.42951-0.13538-0.98235-0.25312-1.6292-0.36164-1.2937-0.21704-2.9586-0.38956-4.6297-0.49591-1.6711-0.10636-3.344-0.14797-4.6548-0.096677zm4.1661 11.363c0.54305 0.03162 1.0807 0.27091 1.4376 0.59975v0.0018h0.0018c0.06811 0.06187 0.05784 0.16111 0.11637 0.22916-0.30614 0.55023-0.82226 1.0241-1.5576 1.1601-0.19193 0.03483-0.38657 0.04748-0.58184 0.03584-0.07095 1.2019 0.09066 0.04528-0.0037-0.0018-0.65042-0.03547-1.2276-0.39117-1.6041-0.83428 0.0064-0.01137 8.15e-4 -0.02631 0.0073-0.03758l0.0018-0.0018c0.29873-0.53546 0.87853-0.98627 1.5969-1.1171 0.19331-0.0352 0.38325-0.04574 0.58363-0.03401 0.05912-1.0136 0.05903-1.014 0.0018-6.4e-5zm-1.2246 19.217c0.54305 0.03162 1.0824 0.27091 1.4394 0.59975v0.0018h0.0018c0.06792 0.06178 0.05802 0.16127 0.11637 0.22916-0.3062 0.55124-0.82194 1.0269-1.5558 1.1601-0.19342 0.03511-0.38503 0.04757-0.58543 0.03584-3.6e-5 5.77e-4 -9.16e-4 0-0.0018 0-0.65684-0.03538-1.2368-0.40213-1.6041-0.83607 0.0055-0.01036 9.17e-4 -0.02374 0.0073-0.03401v-0.0018h0.0018c0.29907-0.53606 0.87971-0.99006 1.5969-1.1207 0.1933-0.0352 0.38324-0.04574 0.58364-0.03401z" color="#000000" fill="#ffaf00" stroke-width=".91663" style="-inkscape-stroke:none"/>
 <path d="m15.784 44.203-3.0148-7.059m16.82 7.9371 3.8838-6.6172m1.7737-27.532-1.7499 27.456m-18.995-28.776-1.7489 27.456m5.6575-34.149-3.8838 6.6172m17.689-5.7409 3.0139 7.0608m-19.446 33.347a6.9289 0.84299 3.6414 0 0 13.804 0.87846m-3.306-10.549c-0.0693-0.6236-0.35684-1.2229-0.85225-1.6733-0.43998-0.40534-1.0671-0.68249-1.7218-0.7206m2.5845 2.8686q0.01732-0.23905-0.01036-0.47463m-5.5085 0.61667c0.03465 0.30141 0.11433 0.59242 0.24598 0.8765 0.37416 0.83493 1.2957 1.5555 2.3385 1.604m0.34991-5.4911c-0.23558-0.01384-0.46424 0-0.69288 0.04162-0.85572 0.15589-1.5486 0.68942-1.9158 1.3477-0.27716 0.49196-0.38802 1.0601-0.32566 1.6214m2.5845 2.4805c0.23212 0.01384 0.46077 0 0.69288-0.04501 1.3303-0.26676 2.1861-1.4412 2.2415-2.5775m-3.2219 0.07269c0.23558 0.01384 0.46423 0 0.69288-0.04152 1.0116-0.18362 1.7703-0.8765 2.0821-1.6976m-4.9126 0.53694c0.42266 0.64786 1.2368 1.1537 2.1376 1.2022m4.4345-19.768c-0.0693-0.62014-0.35684-1.2195-0.85225-1.6699-0.43998-0.40534-1.0671-0.68249-1.7218-0.7206m2.5845 2.8686q0.01732-0.23905-0.01036-0.47809m-5.5085 0.62013c0.03465 0.30141 0.1178 0.59242 0.24598 0.8765 0.37416 0.83493 1.2957 1.5555 2.3385 1.604m0.34991-5.4911c-0.23558-0.01384-0.46423 0-0.69288 0.04162-0.85572 0.15589-1.5486 0.68595-1.9158 1.3442-0.27715 0.49196-0.38802 1.0636-0.32566 1.6248m2.5845 2.4805c0.23212 0.01384 0.46077 0 0.69289-0.04501 1.3303-0.26676 2.1861-1.4412 2.2415-2.5775m-5.3595-1.1294c0.43652 0.66171 1.2472 1.1537 2.1376 1.2022 0.23212 0.01384 0.46424 0 0.69289-0.04162 1.0116-0.18708 1.7703-0.8765 2.0821-1.6976m6.4054 24.339a10.393 1.2645 3.6414 0 0 0.02438-0.07608m-20.73-1.2416a10.393 1.2645 3.6414 0 0 20.706 1.3177m-20.72-1.3963a10.393 1.2645 3.6414 0 0 0.01457 0.07855m22.48-26.211a10.393 1.2645 3.6414 0 0-6.79e-4 -0.02741m-20.744-1.2928a10.393 1.2645 3.6414 1 0 20.745 1.3202m-20.72-1.3963a10.393 1.2645 3.6414 0 0-0.02438 0.076081m20.744 1.2928a10.393 1.2645 3.6414 0 0-0.01393-0.05124m-16.82-7.9353a6.9289 0.84299 3.6414 1 0 13.813 0.91261m-0.0093-0.034099a6.9289 0.84299 3.6414 0 0-13.804-0.87846m13.813 0.91261a6.9289 0.84299 3.6414 0 0-0.0093-0.034099" fill="none" stroke="#000000" stroke-width="1.155"/>
</svg>
